<svg width="35" height="35" viewBox="0 0 35 35" fill="none" xmlns="http://www.w3.org/2000/svg">
<g filter="url(#filter0_d)">
<circle cx="16.5" cy="16.5" r="13.5" fill="#F565A9"/>
<circle cx="16.5" cy="16.5" r="13.5" fill="url(#paint0_linear)"/>
</g>
<path d="M22.5127 14.9651L22.5142 14.982L22.5169 14.9988C22.5226 15.034 22.5841 15.4556 22.4127 16.181L22.4127 16.1811C22.1663 17.2254 21.5963 18.1808 20.7562 18.9428L16.4638 22.7721L12.2455 18.944L12.2452 18.9438C11.4044 18.1819 10.8338 17.2258 10.5873 16.1811L10.5873 16.181C10.4158 15.4551 10.4776 15.0338 10.4831 14.9998L10.486 14.9824L10.4876 14.9648C10.6595 13.0702 11.9748 11.7977 13.525 11.7977C14.5553 11.7977 15.4839 12.3468 16.0323 13.2852L16.4592 14.0158L16.8932 13.2893C17.4447 12.3661 18.4191 11.798 19.475 11.798C21.0255 11.798 22.3406 13.0704 22.5127 14.9651Z" stroke="white"/>
<defs>
<filter id="filter0_d" x="0" y="0" width="35" height="35" filterUnits="userSpaceOnUse" color-interpolation-filters="sRGB">
<feFlood flood-opacity="0" result="BackgroundImageFix"/>
<feColorMatrix in="SourceAlpha" type="matrix" values="0 0 0 0 0 0 0 0 0 0 0 0 0 0 0 0 0 0 127 0"/>
<feOffset dx="1" dy="1"/>
<feGaussianBlur stdDeviation="2"/>
<feColorMatrix type="matrix" values="0 0 0 0 0 0 0 0 0 0 0 0 0 0 0 0 0 0 0.12 0"/>
<feBlend mode="normal" in2="BackgroundImageFix" result="effect1_dropShadow"/>
<feBlend mode="normal" in="SourceGraphic" in2="effect1_dropShadow" result="shape"/>
</filter>
<linearGradient id="paint0_linear" x1="7.29546" y1="48.225" x2="22.0147" y2="50.5436" gradientUnits="userSpaceOnUse">
<stop stop-color="#ABA9FF"/>
<stop offset="1" stop-color="#D6FAFF" stop-opacity="0"/>
</linearGradient>
</defs>
</svg>
